<svg width="167" height="250" viewBox="0 0 167 250" fill="none" xmlns="http://www.w3.org/2000/svg">
<g clip-path="url(#clip0_61_4)">
<mask id="mask0_61_4" style="mask-type:luminance" maskUnits="userSpaceOnUse" x="0" y="0" width="167" height="250">
<path d="M0 0H167V250H0V0Z" fill="white"/>
</mask>
<g mask="url(#mask0_61_4)">
<path d="M102.883 235.099C100.951 235.099 98.9811 234.948 96.9781 234.641C87.709 233.237 77.8574 228.455 68.4902 220.824C62.7363 216.134 57.1919 210.411 52.001 203.806L52.1581 204.113L49.0684 200.285C47.2551 197.626 45.4747 194.876 43.7662 192.099C41.0365 187.774 38.4509 183.175 36.0747 178.426C31.4205 169.319 27.5781 159.984 24.652 150.681C22.8453 144.932 21.3529 139.124 20.2204 133.401C19.3105 128.796 18.6036 123.902 18.0733 118.434C17.5235 112.77 17.3729 106.76 17.6217 100.58C17.7591 97.1504 18.0995 93.5834 18.6559 89.6898C19.0356 87.044 19.4349 84.6791 19.8866 82.4579C20.3972 79.786 21.019 77.1794 21.7194 74.7099C22.1449 48.5915 30.2815 27.817 44.0542 17.7041C52.8388 11.2496 63.476 9.40734 74.807 12.3733C85.5031 15.1693 96.5722 22.166 106.804 32.599C109.651 35.4996 112.413 38.655 115.078 42.0325C117.742 45.41 115.078 42.039 115.084 42.0456C122.278 51.1655 128.732 61.912 134.061 73.6712C137.504 81.2755 140.43 89.2064 142.76 97.2418C143.114 98.3916 143.422 99.4499 143.716 100.489C145.49 106.741 146.878 113.162 147.853 119.591C149.405 129.834 149.843 139.34 149.195 148.662C149.156 149.276 149.103 149.884 149.058 150.491C148.554 157.802 147.415 164.674 145.667 170.92C145.621 171.07 145.582 171.227 145.536 171.377C145.529 171.965 145.51 172.553 145.497 173.141C145.123 185.54 143.055 196.613 139.337 206.047C135.488 215.827 130.055 223.333 123.201 228.37C117.107 232.845 110.286 235.092 102.869 235.092L102.883 235.099ZM51.2547 202.317C56.7206 209.45 62.5857 215.598 68.6931 220.576C78.0145 228.174 87.8072 232.923 97.0239 234.321C106.673 235.784 115.418 233.694 123.024 228.115C129.832 223.117 135.226 215.657 139.055 205.936C142.76 196.535 144.822 185.501 145.189 173.141C145.189 172.945 145.202 172.749 145.202 172.546C143.926 176.642 142.171 180.85 139.861 185.351C135.383 194.092 130.081 200.239 123.659 204.146C118.239 207.438 112.571 208.647 106.817 207.732C101.22 206.844 95.9831 204.113 90.7987 199.39C84.8812 193.994 79.8408 186.781 74.9314 176.688C71.3573 169.332 68.2807 161.075 65.263 150.713C64.9685 149.707 64.7066 148.669 64.4448 147.663C64.3335 147.225 64.2222 146.787 64.1044 146.349C64.0848 146.284 64.1044 146.238 64.1371 146.167C64.1502 146.134 64.1764 146.082 64.2026 146.003L64.3269 145.677L64.687 146.323C64.8048 146.532 64.9161 146.722 65.0143 146.918C67.7963 152.334 70.5652 156.965 73.4847 161.081C76.9803 166.013 80.4169 169.92 83.9975 173.023C87.6567 176.192 91.2569 178.361 95.0078 179.634C99.3412 181.111 103.596 181.235 107.661 180.007C112.538 178.53 117.009 175.362 120.962 170.586C124.779 165.974 127.868 160.382 130.408 153.483C132.437 147.976 133.956 142.07 134.912 135.93C136.424 126.235 136.758 116.259 135.907 106.29C135.416 100.547 134.617 94.9226 133.524 89.5788C132.261 83.3987 130.513 77.1075 128.32 70.8686C125.185 61.9447 121.178 53.3736 116.073 44.6718C115.988 44.5281 115.608 43.7703 115.267 43.1039C115.065 42.7119 114.888 42.3591 114.816 42.222C112.158 38.8575 109.409 35.7152 106.574 32.8212C96.3824 22.4274 85.3721 15.4633 74.735 12.6803C63.5022 9.74052 52.9632 11.5697 44.2571 17.9589C30.6939 27.915 22.6293 48.3041 22.0664 73.9717C25.3262 63.1664 30.0262 54.6671 36.4216 48.0036C40.1986 44.0708 44.388 41.3008 48.8851 39.7656C53.932 38.0409 59.1098 38.0279 64.2549 39.7329C68.8371 41.242 73.1574 44.0316 77.4712 48.2649C82.8716 53.5565 87.4799 60.3115 91.977 69.5294C95.7605 77.2774 98.955 85.855 101.744 95.7458L102.084 96.9478C102.3 97.7122 102.516 98.47 102.725 99.2343C102.771 99.4107 102.804 99.5937 102.83 99.77C102.843 99.8484 102.85 99.9268 102.863 100.005L102.883 100.123L102.444 100.351L102.058 99.6459C101.829 99.2213 101.6 98.8032 101.377 98.372C96.6704 89.3762 91.7806 82.2946 86.4391 76.709C82.145 72.2144 77.8443 69.157 73.3014 67.3474C68.3658 65.3875 63.4498 65.1981 58.6844 66.779C54.2986 68.2424 50.3579 71.0319 46.6464 75.3044C42.038 80.6157 38.4312 87.3772 35.623 95.9744C33.9538 101.083 32.6904 106.675 31.8591 112.601C30.7266 120.669 30.4386 128.926 30.9885 137.85C31.3027 142.965 31.9115 148.107 32.8083 153.131C34.3007 161.473 36.5198 169.678 39.4066 177.511C42.5028 185.913 46.4304 194.137 51.0714 201.951C51.1369 202.068 51.1958 202.186 51.2482 202.297L51.2547 202.317ZM64.543 146.722C64.615 147.009 64.6935 147.303 64.7655 147.591C65.0208 148.59 65.2892 149.629 65.5772 150.628C68.5949 160.977 71.6584 169.214 75.2259 176.551C80.1158 186.605 85.1365 193.791 91.0213 199.155C96.1533 203.839 101.338 206.537 106.869 207.412C112.544 208.314 118.135 207.118 123.489 203.865C129.865 199.991 135.121 193.883 139.573 185.2C142.08 180.307 143.932 175.76 145.228 171.331V171.298C147.048 164.949 148.226 157.939 148.743 150.472C148.796 149.864 148.842 149.25 148.881 148.642C149.529 139.346 149.09 129.86 147.545 119.643C146.402 112.094 144.705 104.64 142.466 97.3398C140.13 89.3014 137.227 81.438 133.779 73.8084C128.726 62.6372 122.651 52.3936 115.889 43.5873C116.112 44.025 116.315 44.417 116.367 44.5085C121.48 53.2364 125.499 61.8206 128.641 70.7641C130.84 77.016 132.595 83.3268 133.858 89.5134C134.951 94.8704 135.756 100.508 136.247 106.264C137.098 116.259 136.764 126.254 135.252 135.982C134.296 142.142 132.771 148.074 130.736 153.601C128.183 160.532 125.073 166.157 121.231 170.795C117.238 175.623 112.708 178.831 107.772 180.32C103.648 181.568 99.3215 181.444 94.9227 179.941C91.1326 178.648 87.493 176.466 83.8011 173.265C80.2009 170.142 76.7446 166.216 73.236 161.264C70.3099 157.135 67.5345 152.49 64.7393 147.062C64.6804 146.944 64.615 146.826 64.5495 146.709L64.543 146.722ZM22.0402 74.8014C21.3398 77.2578 20.7245 79.8578 20.2139 82.5233C19.7622 84.7444 19.3629 87.1028 18.9832 89.7421C18.4268 93.6291 18.093 97.183 17.9555 100.6C17.7068 106.767 17.8573 112.757 18.4072 118.408C18.9374 123.863 19.6378 128.75 20.5477 133.342C21.6802 139.052 23.1661 144.853 24.9728 150.589C27.8923 159.879 31.7282 169.195 36.3758 178.289C38.7102 182.959 41.2705 187.513 44.0476 191.936C45.7561 194.712 47.5301 197.456 49.3368 200.095L50.3121 201.297C45.874 193.713 42.1035 185.756 39.112 177.635C36.2187 169.789 33.9931 161.564 32.4941 153.202C31.5973 148.166 30.9819 143.011 30.6677 137.889C30.1244 128.939 30.4059 120.662 31.5449 112.574C32.3828 106.63 33.6527 101.018 35.3219 95.8895C38.1432 87.2531 41.7696 80.4523 46.4107 75.1084C50.1615 70.7837 54.148 67.968 58.5927 66.4851C63.4302 64.8714 68.4313 65.0674 73.4389 67.0599C78.0276 68.8826 82.361 71.9727 86.6879 76.4999C92.049 82.1052 96.9519 89.2195 101.678 98.2414C101.901 98.666 102.13 99.0906 102.359 99.5087L102.509 99.7831C102.483 99.6263 102.464 99.4761 102.424 99.3389C102.215 98.5745 101.999 97.8167 101.783 97.0524L101.442 95.8503C98.6604 85.9791 95.4725 77.4211 91.6955 69.6927C87.2181 60.514 82.6294 53.7851 77.2552 48.5196C72.9807 44.3255 68.6996 41.5621 64.1633 40.0661C59.0837 38.3872 53.9844 38.4002 49.0029 40.0988C44.5582 41.6144 40.4081 44.3582 36.6704 48.2518C30.1637 55.0329 25.4179 63.7282 22.1711 74.8471L22.0533 74.8145L22.0402 74.8014Z" fill="#421629"/>
<path d="M117.127 129.664H116.734V135.583H117.133V129.664H117.127ZM112.322 133.258L113.016 131.422C113.251 130.801 113.749 130.801 113.978 131.422L114.659 133.258H112.322ZM115.955 135.577L113.71 129.658H113.284L111.039 135.577H111.458L112.184 133.643H114.822L115.549 135.577H115.968H115.955ZM106.679 135.662C107.569 135.662 108.204 135.198 108.394 134.381C108.434 134.172 108.034 134.107 108.001 134.309C107.877 134.95 107.36 135.296 106.679 135.296C105.894 135.296 105.213 134.629 105.213 133.519C105.213 132.408 105.894 131.709 106.738 131.709C107.432 131.709 107.897 132.108 107.969 132.637C108.008 132.839 108.401 132.755 108.368 132.552C108.237 131.846 107.609 131.337 106.738 131.337C105.645 131.337 104.814 132.199 104.814 133.512C104.814 134.825 105.645 135.655 106.679 135.655M103.465 130.181C103.465 130.357 103.616 130.507 103.792 130.507C103.969 130.507 104.107 130.357 104.107 130.181C104.107 130.004 103.963 129.854 103.792 129.854C103.622 129.854 103.465 130.004 103.465 130.181ZM103.596 135.577H103.969V131.422H103.596V135.577ZM102.136 135.577H102.509V129.658H102.136V135.577ZM98.1629 133.525C98.1629 132.415 98.5819 131.683 99.5179 131.683C100.218 131.683 100.853 132.33 100.853 133.525C100.853 134.721 100.303 135.387 99.5179 135.387C98.7324 135.387 98.1629 134.629 98.1629 133.525ZM99.5834 135.701C100.539 135.701 101.298 134.871 101.298 133.512C101.298 132.153 100.526 131.35 99.5638 131.35C99.0074 131.35 98.6539 131.533 98.4575 131.735C98.3659 131.827 98.176 131.846 98.176 131.611V129.756C98.176 129.482 97.8029 129.482 97.8029 129.756V135.57H98.176V135.302C98.176 135.126 98.3331 135.093 98.4248 135.217C98.5557 135.407 98.9681 135.688 99.5834 135.688M94.8834 135.701C95.5249 135.701 96.0093 135.276 96.1337 135.126C96.2515 134.982 96.4348 135.061 96.4348 135.224V135.57H96.8079V131.415H96.4348V133.565C96.4348 134.623 95.6624 135.335 94.9685 135.335C94.3532 135.335 94.0848 134.976 94.0783 134.231L94.0652 131.415H93.6921V134.433C93.6921 135.257 94.1568 135.694 94.89 135.694M89.4306 131.415C89.4306 130.494 90.1114 130.043 90.7791 130.043H91.1391C91.8657 130.043 92.5465 130.494 92.5465 131.415C92.5465 132.474 91.8526 132.82 91.0148 132.82H90.7791C90.0394 132.82 89.4306 132.474 89.4306 131.415ZM93.0964 131.415C93.0964 130.252 92.2323 129.664 91.2831 129.664H89.0117V135.583H89.411V133.205H91.3159C92.1407 133.205 93.0964 132.768 93.0964 131.415ZM85.274 131.422L84.3183 132.741C84.1284 132.996 83.8601 132.996 83.6768 132.741L82.7341 131.422H82.2236L83.7619 133.493L82.2236 135.577H82.6883L83.6702 134.224C83.8601 133.95 84.1219 133.957 84.3117 134.224L85.3133 135.577H85.778L84.5605 133.957C84.3117 133.617 84.279 133.414 84.5605 133.035L85.778 131.422H85.2674H85.274ZM79.6968 135.609V135.191C79.147 135.381 78.7477 135.185 78.7477 134.545V131.742H79.6117V131.415H79.3695C78.9899 131.415 78.7477 131.174 78.7477 130.795V129.625H78.7215L78.3746 129.9V130.795C78.3746 131.174 78.1324 131.415 77.7527 131.415H77.7592V131.742H77.7527C78.1324 131.742 78.3746 131.984 78.3746 132.363V134.656C78.3746 134.956 78.4727 135.23 78.6757 135.42C78.8982 135.636 79.2517 135.734 79.6968 135.603M75.7955 135.577H76.1686V133.519C76.1686 132.774 76.3584 132.278 76.7381 132.023C76.9475 131.873 77.2094 131.801 77.5301 131.788V131.337H77.4319C77.1505 131.363 76.7839 131.461 76.4762 131.742C76.3584 131.886 76.1751 131.807 76.1751 131.644V131.422H75.802V135.577H75.7955ZM71.5537 133.258L72.2476 131.422C72.4832 130.801 72.9807 130.801 73.2164 131.422L73.8971 133.258H71.5602H71.5537ZM75.1801 135.577L72.9349 129.658H72.5094L70.2641 135.577H70.6831L71.4097 133.643H74.0477L74.7743 135.577H75.1932H75.1801ZM67.2465 135.596C67.4494 135.596 67.6065 135.44 67.6065 135.237C67.6065 135.034 67.4494 134.878 67.2465 134.878C67.0435 134.878 66.8864 135.034 66.8864 135.237C66.8864 135.44 67.0435 135.596 67.2465 135.596ZM63.0178 133.93L65.0601 130.893C65.2172 130.657 65.4398 130.749 65.4398 130.951V133.937H63.0178V133.93ZM65.4398 134.956V135.577H65.8718V134.969C65.8718 134.551 66.0813 134.329 66.4937 134.329H66.5133V133.93H66.4937C66.0747 133.93 65.8718 133.721 65.8718 133.31V129.664H65.4398L62.6316 133.839V134.335H64.8965C65.3154 134.335 65.4398 134.558 65.4398 134.956ZM59.1753 135.577H59.5484V129.658H59.1753V135.577ZM55.0383 133.519C55.0383 132.395 55.6209 131.683 56.4849 131.683C57.349 131.683 57.925 132.395 57.925 133.519C57.925 134.643 57.349 135.348 56.4849 135.348C55.6209 135.348 55.0383 134.636 55.0383 133.519ZM56.4915 135.668C57.6108 135.668 58.3505 134.871 58.3505 133.519C58.3505 132.167 57.6108 131.356 56.4915 131.356C55.3721 131.356 54.6259 132.206 54.6259 133.519C54.6259 134.832 55.3787 135.668 56.4915 135.668ZM52.073 135.577H52.5377L54.7503 129.658H54.3313L52.7996 133.754C52.5966 134.283 52.001 134.283 51.798 133.754L50.2663 129.658H49.8474L52.0599 135.577H52.073Z" fill="#421629"/>
</g>
<path d="M19.2516 100.691H38.2741V115.037H19.2516V100.691ZM134.002 103.703H151.925V113.888H134.002V103.703Z" fill="white"/>
<mask id="mask1_61_4" style="mask-type:luminance" maskUnits="userSpaceOnUse" x="0" y="0" width="167" height="250">
<path d="M0 0H167V250H0V0Z" fill="white"/>
</mask>
<g mask="url(#mask1_61_4)">
<path d="M143.84 112.705C145.588 112.705 146.537 112.013 146.537 110.726C146.537 109.589 145.785 109.106 144.495 108.857L143.69 108.707C142.623 108.498 141.818 108.224 141.818 107.322C141.818 106.545 142.472 106.113 143.624 106.113C144.96 106.113 145.497 106.597 145.569 107.446C145.595 107.845 146.276 107.753 146.236 107.348C146.125 106.198 145.281 105.506 143.611 105.506C142.165 105.506 141.15 106.211 141.15 107.387C141.15 108.563 142.093 108.994 142.996 109.177L144.135 109.413C145.3 109.648 145.857 110.02 145.857 110.771C145.857 111.562 145.261 112.104 143.801 112.104C142.191 112.104 141.608 111.385 141.582 110.399C141.556 110.014 140.875 110.092 140.901 110.569C141 111.869 141.844 112.718 143.847 112.718M130.042 112.568H130.67V108.981C130.67 107.224 131.96 106.029 133.112 106.029C134.139 106.029 134.585 106.623 134.598 107.871L134.624 112.568H135.252V108.981C135.252 107.224 136.489 106.029 137.641 106.029C138.669 106.029 139.114 106.623 139.127 107.871L139.154 112.568H139.782V107.538C139.782 106.166 139.003 105.428 137.779 105.428C136.712 105.428 135.907 106.133 135.737 106.316C135.527 106.551 135.239 106.577 135.082 106.355C134.899 106.094 134.349 105.428 133.249 105.428C132.149 105.428 131.416 106.12 131.122 106.492C130.938 106.714 130.664 106.63 130.664 106.355V105.637H130.035V112.568H130.042ZM123.627 108.478V108.465C123.666 107.067 124.602 106.127 125.905 106.127C126.932 106.127 127.901 106.845 127.947 108.485H123.627V108.478ZM125.983 112.705C127.273 112.705 128.386 111.928 128.595 110.308H127.986C127.816 111.516 126.945 112.078 125.99 112.078C124.294 112.078 123.6 110.543 123.6 109.073H128.615V108.936C128.615 106.884 127.574 105.499 125.905 105.499C124.072 105.499 122.933 106.91 122.933 108.994C122.933 111.078 123.96 112.712 125.99 112.712M122.095 112.62V111.928C121.178 112.248 120.511 111.915 120.511 110.85V106.179H121.957V105.637H121.552C120.91 105.637 120.511 105.238 120.511 104.598V102.645H120.471L119.889 103.102V104.598C119.889 105.238 119.483 105.637 118.848 105.637H118.861V106.179H118.848C119.49 106.179 119.889 106.584 119.889 107.218V111.039C119.889 111.536 120.053 111.993 120.386 112.313C120.759 112.672 121.342 112.842 122.095 112.62ZM115.739 112.705C117.487 112.705 118.436 112.013 118.436 110.726C118.436 109.589 117.683 109.106 116.393 108.857L115.588 108.707C114.521 108.498 113.716 108.224 113.716 107.322C113.716 106.545 114.371 106.113 115.523 106.113C116.858 106.113 117.395 106.597 117.467 107.446C117.493 107.845 118.174 107.753 118.135 107.348C118.023 106.198 117.179 105.506 115.51 105.506C114.063 105.506 113.055 106.211 113.055 107.387C113.055 108.563 113.998 108.994 114.901 109.177L116.04 109.413C117.205 109.648 117.761 110.02 117.761 110.771C117.761 111.562 117.166 112.104 115.706 112.104C114.096 112.104 113.513 111.385 113.487 110.399C113.461 110.014 112.78 110.092 112.806 110.569C112.904 111.869 113.749 112.718 115.752 112.718M112.374 105.637H111.68L110.155 109.752C109.88 110.504 108.977 110.517 108.722 109.752L107.36 105.637H106.666L109.068 112.705L107.956 115.508H108.564L112.368 105.637H112.374ZM103.459 112.705C105.206 112.705 106.156 112.013 106.156 110.726C106.156 109.589 105.403 109.106 104.113 108.857L103.308 108.707C102.241 108.498 101.436 108.224 101.436 107.322C101.436 106.545 102.09 106.113 103.243 106.113C104.578 106.113 105.115 106.597 105.187 107.446C105.213 107.845 105.894 107.753 105.854 107.348C105.743 106.198 104.899 105.506 103.229 105.506C101.783 105.506 100.775 106.211 100.775 107.387C100.775 108.563 101.717 108.994 102.621 109.177L103.76 109.413C104.925 109.648 105.481 110.02 105.481 110.771C105.481 111.562 104.886 112.104 103.426 112.104C101.816 112.104 101.233 111.385 101.207 110.399C101.181 110.014 100.5 110.092 100.526 110.569C100.624 111.869 101.469 112.718 103.472 112.718M94.0913 109.125C94.0913 107.257 95.0667 106.061 96.5068 106.061C97.9469 106.061 98.9091 107.25 98.9091 109.125C98.9091 111 97.9534 112.176 96.5068 112.176C95.0601 112.176 94.0913 110.987 94.0913 109.125ZM96.5068 112.718C98.3658 112.718 99.603 111.385 99.603 109.132C99.603 106.878 98.3658 105.532 96.5068 105.532C94.6477 105.532 93.3975 106.943 93.3975 109.132C93.3975 111.32 94.6477 112.718 96.5068 112.718ZM89.6597 112.705C91.1457 112.705 92.1996 111.928 92.5203 110.569C92.5923 110.223 91.9246 110.112 91.8657 110.445C91.6562 111.51 90.7987 112.091 89.6597 112.091C88.3571 112.091 87.2181 110.98 87.2181 109.125C87.2181 107.27 88.3571 106.107 89.7579 106.107C90.91 106.107 91.689 106.773 91.8133 107.662C91.8853 107.995 92.5334 107.858 92.481 107.525C92.2585 106.349 91.2177 105.499 89.7579 105.499C87.9381 105.499 86.5504 106.943 86.5504 109.132C86.5504 111.32 87.9382 112.705 89.6597 112.705ZM85.85 102.697H79.5855V112.561H85.706V111.921H80.2467V107.512H85.4245V106.884H82.1581C81.0584 106.884 80.1878 106.427 80.1878 105.081C80.1878 103.82 81.1893 103.311 82.1581 103.311H85.8369V102.684L85.85 102.697ZM74.4535 112.62V111.928C73.5371 112.248 72.8694 111.915 72.8694 110.85V106.179H74.3161V105.637H73.9168C73.2752 105.637 72.8759 105.238 72.8759 104.598V102.645H72.8367L72.2541 103.102V104.598C72.2541 105.238 71.8482 105.637 71.2133 105.637H71.2264V106.179H71.2133C71.8548 106.179 72.2541 106.584 72.2541 107.218V111.039C72.2541 111.536 72.4177 111.993 72.7516 112.313C73.1247 112.672 73.7073 112.842 74.4601 112.62M67.9534 112.568H68.5753V109.132C68.5753 107.884 68.896 107.067 69.5179 106.636C69.8648 106.388 70.3099 106.264 70.8336 106.251V105.499H70.6634C70.1921 105.539 69.5833 105.708 69.0662 106.179C68.8698 106.414 68.5687 106.29 68.5687 106.015V105.643H67.9469V112.574L67.9534 112.568ZM60.8707 108.7L62.0228 105.637C62.409 104.598 63.2469 104.598 63.6331 105.637L64.7721 108.7H60.8707ZM66.9257 112.568L63.1749 102.703H62.4679L58.7171 112.568H59.411L60.6219 109.341H65.0208L66.2318 112.568H66.9257ZM49.0553 108.478V108.465C49.0946 107.067 50.0306 106.127 51.3333 106.127C52.361 106.127 53.3363 106.845 53.3756 108.485H49.0553V108.478ZM51.4118 112.705C52.7014 112.705 53.8142 111.928 54.0236 110.308H53.4149C53.2512 111.516 52.3741 112.078 51.4118 112.078C49.7164 112.078 49.0225 110.543 49.0225 109.073H54.0367V108.936C54.0367 106.884 52.9959 105.499 51.3267 105.499C49.4939 105.499 48.3549 106.91 48.3549 108.994C48.3549 111.078 49.3826 112.712 51.4118 112.712M45.0295 112.568H45.6514V109.132C45.6514 107.884 45.9721 107.067 46.594 106.636C46.9409 106.388 47.3861 106.264 47.9163 106.251V105.499H47.7526C47.2813 105.539 46.6726 105.708 46.1554 106.179C45.959 106.414 45.6579 106.29 45.6579 106.015V105.643H45.0361V112.574L45.0295 112.568ZM40.2903 112.77C41.3573 112.77 42.1624 112.065 42.3719 111.817C42.5683 111.581 42.8694 111.706 42.8694 111.987V112.568H43.4912V105.637H42.8694V109.23C42.8694 110.987 41.5798 112.183 40.4277 112.183C39.4 112.183 38.9549 111.588 38.9418 110.34L38.9156 105.643H38.2938V110.673C38.2938 112.045 39.0727 112.784 40.2968 112.784M37.2464 112.62V111.928C36.33 112.248 35.6623 111.915 35.6623 110.85V106.179H37.1089V105.637H36.7096C36.0681 105.637 35.6688 105.238 35.6688 104.598V102.645H35.6296L35.047 103.102V104.598C35.047 105.238 34.6411 105.637 34.0062 105.637H34.0193V106.179H34.0062C34.6477 106.179 35.047 106.584 35.047 107.218V111.039C35.047 111.536 35.2172 111.993 35.5445 112.313C35.9176 112.672 36.5002 112.842 37.2529 112.62M29.7644 112.77C30.8314 112.77 31.6365 112.065 31.846 111.817C32.0424 111.581 32.3435 111.706 32.3435 111.987V112.568H32.9654V105.637H32.3435V109.23C32.3435 110.987 31.0539 112.183 29.9019 112.183C28.8741 112.183 28.429 111.588 28.4159 110.34L28.3897 105.643H27.7679V110.673C27.7679 112.045 28.5468 112.784 29.7709 112.784M26.7271 102.697H20.4626V112.561H21.1303V107.518H26.3081V106.891H23.0417C21.942 106.891 21.0714 106.434 21.0714 105.088C21.0714 103.827 22.0729 103.317 23.0417 103.317H26.7205V102.69L26.7271 102.697Z" fill="#421629"/>
</g>
</g>
<defs>
<clipPath id="clip0_61_4">
<rect width="167" height="250" fill="white"/>
</clipPath>
</defs>
</svg>
